<svg viewBox="0 0 20 20" xmlns="http://www.w3.org/2000/svg" width="25" height="25" class="MovieDescription_ratingIcon__1-opE"><g fill="#FC0" fill-rule="evenodd"><path d="M10 20C4.477 20 0 15.523 0 10S4.477 0 10 0s10 4.477 10 10-4.477 10-10 10zM3.333 7.333v5.037h1.482V7.333H3.333zm4.348 0L7.35 9.686l-.206-1.28c-.06-.41-.117-.768-.172-1.073h-1.86v5.037h1.257l.004-3.325.53 3.325h.894l.502-3.4.005 3.4h1.253V7.333H7.68zm4.048 5.037c.312 0 .546-.017.701-.05a.924.924 0 00.391-.181.681.681 0 00.222-.357c.043-.152.068-.454.068-.906V9.107c0-.476-.018-.796-.047-.958a.905.905 0 00-.218-.443c-.116-.132-.285-.228-.508-.286-.222-.058-.585-.087-1.217-.087h-.973v5.037h1.58zm1.975 0h1.185l.074-.382c.106.128.224.223.352.287.128.064.32.095.468.095a.9.9 0 00.536-.16.7.7 0 00.287-.38c.04-.146.06-.368.06-.666V9.769c0-.3-.006-.496-.02-.588a.67.67 0 00-.411-.505 1.163 1.163 0 00-.451-.08c-.15 0-.343.03-.471.088a1.036 1.036 0 00-.35.267V7.333h-1.26v5.037z"></path><path d="M15.185 11.218c0 .244-.008.399-.024.463s-.087.097-.14.097c-.053 0-.088-.031-.106-.093a2.043 2.043 0 01-.026-.426V9.924c0-.23.008-.374.023-.431.016-.057.05-.086.102-.086.053 0 .125.033.144.098.018.066.027.205.027.418v1.295zM11.742 8.24c.052.03.085.077.099.141.014.064.022.21.022.438v1.953c0 .335-.022.54-.065.616-.044.076-.16.113-.347.113V8.195c.142 0 .24.015.291.045z"></path></g></svg>