<svg viewBox="0 0 165 26" xmlns="http://www.w3.org/2000/svg" class="Logo_logoIcon__VjmKn"><g fill="none" fill-rule="evenodd"><path d="M0 0h20.675v25.821H0V0zm13.273 1.832c-6.32 0-11.443 4.96-11.443 11.079 0 6.118 5.123 11.078 11.443 11.078 2.003 0 3.885-.499 5.522-1.374v-3.737a8.401 8.401 0 01-5.522 2.045c-4.571 0-8.277-3.587-8.277-8.012 0-4.426 3.706-8.013 8.277-8.013 2.122 0 4.057.774 5.522 2.045V3.206a11.687 11.687 0 00-5.522-1.374zM22.513 0h6.432v25.821h-6.432V0zm1.771 1.832V23.99h2.756V1.832h-2.756zM30.783 0h20.215v25.821H30.783V0zM32.6 23.989h2.744V9.449l13.723 14.54V1.832h-2.745v14.771L32.601 1.833v22.156zM52.836 0h12.865v25.821H52.836V0zm11.035 21.219h-6.404v-6.924h6.404v-2.77h-6.404V4.603h6.404v-2.77h-9.148V23.99h9.148v-2.77z" fill="#FFF"></path><path d="M67.53 0h18.39v25.821H67.53V0zm8.8 1.832h-7.032V23.99h2.756v-9.694h1.384l6.884 9.694h3.675l-6.963-9.719c2.56-.35 4.847-2.599 4.847-6.219 0-3.949-2.554-6.219-5.551-6.219zM113.507 0h25.746v25.821h-25.746V0zm1.926 23.989h3.172l1.692-12.832 6.197 12.832 6.198-12.832 1.692 12.832h3.171l-3.594-22.157-7.467 15.357-7.466-15.357-3.595 22.157zM141.092 0H165v25.821h-23.908V0zm11.956 1.93L142.926 23.99h3.39l2.409-5.797h8.646l2.409 5.797h3.39L153.048 1.93zM87.76 0h23.907v25.821H87.76V0zm11.896 1.93L89.534 23.99h3.39l2.409-5.797h8.646l2.409 5.797h3.39L99.656 1.93z" fill="#FFFF4D"></path><path d="M72.054 4.602h2.509c2.664 0 4.136 1.402 4.136 3.491 0 2.09-1.308 3.202-4.111 3.202h-2.534V4.602z" fill="#FFFF4D"></path><path d="M102.992 15.816L99.656 7.79l-3.336 8.026h6.672zM156.384 15.816l-3.336-8.026-3.336 8.026h6.672z" fill="#FFFF67"></path></g></svg>