<svg viewBox="0 0 20 20" xmlns="http://www.w3.org/2000/svg" width="25" height="25" class="MovieDescription_ratingIcon__1-opE"><path d="M10 20C4.477 20 0 15.523 0 10S4.477 0 10 0s10 4.477 10 10-4.477 10-10 10zm0-8.667a1.333 1.333 0 100-2.666 1.333 1.333 0 000 2.666zM6 8.667a2.667 2.667 0 100-5.334 2.667 2.667 0 000 5.334zm0 8a2.667 2.667 0 100-5.334 2.667 2.667 0 000 5.334zm8-8a2.667 2.667 0 100-5.334 2.667 2.667 0 000 5.334zm0 8a2.667 2.667 0 100-5.334 2.667 2.667 0 000 5.334z" fill="#FF791A" fill-rule="evenodd"></path></svg>